<svg width="25" height="19" viewBox="0 0 25 19" fill="none" xmlns="http://www.w3.org/2000/svg">
<path d="M1.5625 18.75C1.5625 18.75 0 18.75 0 17.1875C0 15.625 1.5625 10.9375 9.375 10.9375C17.1875 10.9375 18.75 15.625 18.75 17.1875C18.75 18.75 17.1875 18.75 17.1875 18.75H1.5625ZM9.375 9.375C10.6182 9.375 11.8105 8.88114 12.6896 8.00206C13.5686 7.12299 14.0625 5.9307 14.0625 4.6875C14.0625 3.4443 13.5686 2.25201 12.6896 1.37294C11.8105 0.49386 10.6182 0 9.375 0C8.1318 0 6.93951 0.49386 6.06044 1.37294C5.18136 2.25201 4.6875 3.4443 4.6875 4.6875C4.6875 5.9307 5.18136 7.12299 6.06044 8.00206C6.93951 8.88114 8.1318 9.375 9.375 9.375Z" fill="white"/>
<path fill-rule="evenodd" clip-rule="evenodd" d="M21.0938 4.6875C21.301 4.6875 21.4997 4.76981 21.6462 4.91632C21.7927 5.06284 21.875 5.26155 21.875 5.46875V7.8125H24.2188C24.426 7.8125 24.6247 7.89481 24.7712 8.04132C24.9177 8.18784 25 8.38655 25 8.59375C25 8.80095 24.9177 8.99966 24.7712 9.14618C24.6247 9.29269 24.426 9.375 24.2188 9.375H21.875V11.7188C21.875 11.926 21.7927 12.1247 21.6462 12.2712C21.4997 12.4177 21.301 12.5 21.0938 12.5C20.8865 12.5 20.6878 12.4177 20.5413 12.2712C20.3948 12.1247 20.3125 11.926 20.3125 11.7188V9.375H17.9688C17.7615 9.375 17.5628 9.29269 17.4163 9.14618C17.2698 8.99966 17.1875 8.80095 17.1875 8.59375C17.1875 8.38655 17.2698 8.18784 17.4163 8.04132C17.5628 7.89481 17.7615 7.8125 17.9688 7.8125H20.3125V5.46875C20.3125 5.26155 20.3948 5.06284 20.5413 4.91632C20.6878 4.76981 20.8865 4.6875 21.0938 4.6875Z" fill="white"/>
</svg>
