<svg width="26" height="26" viewBox="0 0 26 26" fill="none" xmlns="http://www.w3.org/2000/svg">
<g clip-path="url(#clip0_304_230)">
<path d="M10.5625 9.75C10.347 9.75 10.1403 9.8356 9.98798 9.98798C9.8356 10.1403 9.75 10.347 9.75 10.5625V15.4375C9.75 15.653 9.8356 15.8597 9.98798 16.012C10.1403 16.1644 10.347 16.25 10.5625 16.25H15.4375C15.653 16.25 15.8597 16.1644 16.012 16.012C16.1644 15.8597 16.25 15.653 16.25 15.4375V10.5625C16.25 10.347 16.1644 10.1403 16.012 9.98798C15.8597 9.8356 15.653 9.75 15.4375 9.75H10.5625Z" fill="white"/>
<path d="M8.9375 0.8125C8.9375 0.597012 8.8519 0.390349 8.69952 0.237976C8.54715 0.0856024 8.34049 0 8.125 0C7.90951 0 7.70285 0.0856024 7.55048 0.237976C7.3981 0.390349 7.3125 0.597012 7.3125 0.8125V3.25C6.23506 3.25 5.20175 3.67801 4.43988 4.43988C3.67801 5.20175 3.25 6.23506 3.25 7.3125H0.8125C0.597012 7.3125 0.390349 7.3981 0.237976 7.55048C0.0856024 7.70285 0 7.90951 0 8.125C0 8.34049 0.0856024 8.54715 0.237976 8.69952C0.390349 8.8519 0.597012 8.9375 0.8125 8.9375H3.25V10.5625H0.8125C0.597012 10.5625 0.390349 10.6481 0.237976 10.8005C0.0856024 10.9528 0 11.1595 0 11.375C0 11.5905 0.0856024 11.7972 0.237976 11.9495C0.390349 12.1019 0.597012 12.1875 0.8125 12.1875H3.25V13.8125H0.8125C0.597012 13.8125 0.390349 13.8981 0.237976 14.0505C0.0856024 14.2028 0 14.4095 0 14.625C0 14.8405 0.0856024 15.0472 0.237976 15.1995C0.390349 15.3519 0.597012 15.4375 0.8125 15.4375H3.25V17.0625H0.8125C0.597012 17.0625 0.390349 17.1481 0.237976 17.3005C0.0856024 17.4528 0 17.6595 0 17.875C0 18.0905 0.0856024 18.2972 0.237976 18.4495C0.390349 18.6019 0.597012 18.6875 0.8125 18.6875H3.25C3.25 19.7649 3.67801 20.7983 4.43988 21.5601C5.20175 22.322 6.23506 22.75 7.3125 22.75V25.1875C7.3125 25.403 7.3981 25.6097 7.55048 25.762C7.70285 25.9144 7.90951 26 8.125 26C8.34049 26 8.54715 25.9144 8.69952 25.762C8.8519 25.6097 8.9375 25.403 8.9375 25.1875V22.75H10.5625V25.1875C10.5625 25.403 10.6481 25.6097 10.8005 25.762C10.9528 25.9144 11.1595 26 11.375 26C11.5905 26 11.7972 25.9144 11.9495 25.762C12.1019 25.6097 12.1875 25.403 12.1875 25.1875V22.75H13.8125V25.1875C13.8125 25.403 13.8981 25.6097 14.0505 25.762C14.2028 25.9144 14.4095 26 14.625 26C14.8405 26 15.0472 25.9144 15.1995 25.762C15.3519 25.6097 15.4375 25.403 15.4375 25.1875V22.75H17.0625V25.1875C17.0625 25.403 17.1481 25.6097 17.3005 25.762C17.4528 25.9144 17.6595 26 17.875 26C18.0905 26 18.2972 25.9144 18.4495 25.762C18.6019 25.6097 18.6875 25.403 18.6875 25.1875V22.75C19.7649 22.75 20.7983 22.322 21.5601 21.5601C22.322 20.7983 22.75 19.7649 22.75 18.6875H25.1875C25.403 18.6875 25.6097 18.6019 25.762 18.4495C25.9144 18.2972 26 18.0905 26 17.875C26 17.6595 25.9144 17.4528 25.762 17.3005C25.6097 17.1481 25.403 17.0625 25.1875 17.0625H22.75V15.4375H25.1875C25.403 15.4375 25.6097 15.3519 25.762 15.1995C25.9144 15.0472 26 14.8405 26 14.625C26 14.4095 25.9144 14.2028 25.762 14.0505C25.6097 13.8981 25.403 13.8125 25.1875 13.8125H22.75V12.1875H25.1875C25.403 12.1875 25.6097 12.1019 25.762 11.9495C25.9144 11.7972 26 11.5905 26 11.375C26 11.1595 25.9144 10.9528 25.762 10.8005C25.6097 10.6481 25.403 10.5625 25.1875 10.5625H22.75V8.9375H25.1875C25.403 8.9375 25.6097 8.8519 25.762 8.69952C25.9144 8.54715 26 8.34049 26 8.125C26 7.90951 25.9144 7.70285 25.762 7.55048C25.6097 7.3981 25.403 7.3125 25.1875 7.3125H22.75C22.75 6.23506 22.322 5.20175 21.5601 4.43988C20.7983 3.67801 19.7649 3.25 18.6875 3.25V0.8125C18.6875 0.597012 18.6019 0.390349 18.4495 0.237976C18.2972 0.0856024 18.0905 0 17.875 0C17.6595 0 17.4528 0.0856024 17.3005 0.237976C17.1481 0.390349 17.0625 0.597012 17.0625 0.8125V3.25H15.4375V0.8125C15.4375 0.597012 15.3519 0.390349 15.1995 0.237976C15.0472 0.0856024 14.8405 0 14.625 0C14.4095 0 14.2028 0.0856024 14.0505 0.237976C13.8981 0.390349 13.8125 0.597012 13.8125 0.8125V3.25H12.1875V0.8125C12.1875 0.597012 12.1019 0.390349 11.9495 0.237976C11.7972 0.0856024 11.5905 0 11.375 0C11.1595 0 10.9528 0.0856024 10.8005 0.237976C10.6481 0.390349 10.5625 0.597012 10.5625 0.8125V3.25H8.9375V0.8125ZM10.5625 8.125H15.4375C16.084 8.125 16.704 8.38181 17.1611 8.83893C17.6182 9.29605 17.875 9.91603 17.875 10.5625V15.4375C17.875 16.084 17.6182 16.704 17.1611 17.1611C16.704 17.6182 16.084 17.875 15.4375 17.875H10.5625C9.91603 17.875 9.29605 17.6182 8.83893 17.1611C8.38181 16.704 8.125 16.084 8.125 15.4375V10.5625C8.125 9.91603 8.38181 9.29605 8.83893 8.83893C9.29605 8.38181 9.91603 8.125 10.5625 8.125Z" fill="white"/>
</g>
<defs>
<clipPath id="clip0_304_230">
<rect width="26" height="26" fill="white"/>
</clipPath>
</defs>
</svg>
