<svg width="75" height="75" viewBox="0 0 75 75" fill="none" xmlns="http://www.w3.org/2000/svg">
<g clip-path="url(#clip0_304_241)">
<path d="M23.4375 0C24.0591 0 24.6552 0.24693 25.0948 0.686468C25.5343 1.12601 25.7812 1.72215 25.7812 2.34375V9.375H30.4688V2.34375C30.4688 1.72215 30.7157 1.12601 31.1552 0.686468C31.5948 0.24693 32.1909 0 32.8125 0C33.4341 0 34.0302 0.24693 34.4698 0.686468C34.9093 1.12601 35.1562 1.72215 35.1562 2.34375V9.375H39.8438V2.34375C39.8438 1.72215 40.0907 1.12601 40.5302 0.686468C40.9698 0.24693 41.5659 0 42.1875 0C42.8091 0 43.4052 0.24693 43.8448 0.686468C44.2843 1.12601 44.5312 1.72215 44.5312 2.34375V9.375H49.2188V2.34375C49.2188 1.72215 49.4657 1.12601 49.9052 0.686468C50.3448 0.24693 50.9409 0 51.5625 0C52.1841 0 52.7802 0.24693 53.2198 0.686468C53.6593 1.12601 53.9062 1.72215 53.9062 2.34375V9.375C57.0143 9.375 59.995 10.6097 62.1927 12.8073C64.3904 15.005 65.625 17.9857 65.625 21.0938H72.6562C73.2779 21.0938 73.874 21.3407 74.3135 21.7802C74.7531 22.2198 75 22.8159 75 23.4375C75 24.0591 74.7531 24.6552 74.3135 25.0948C73.874 25.5343 73.2779 25.7812 72.6562 25.7812H65.625V30.4688H72.6562C73.2779 30.4688 73.874 30.7157 74.3135 31.1552C74.7531 31.5948 75 32.1909 75 32.8125C75 33.4341 74.7531 34.0302 74.3135 34.4698C73.874 34.9093 73.2779 35.1562 72.6562 35.1562H65.625V39.8438H72.6562C73.2779 39.8438 73.874 40.0907 74.3135 40.5302C74.7531 40.9698 75 41.5659 75 42.1875C75 42.8091 74.7531 43.4052 74.3135 43.8448C73.874 44.2843 73.2779 44.5312 72.6562 44.5312H65.625V49.2188H72.6562C73.2779 49.2188 73.874 49.4657 74.3135 49.9052C74.7531 50.3448 75 50.9409 75 51.5625C75 52.1841 74.7531 52.7802 74.3135 53.2198C73.874 53.6593 73.2779 53.9062 72.6562 53.9062H65.625C65.625 57.0143 64.3904 59.995 62.1927 62.1927C59.995 64.3904 57.0143 65.625 53.9062 65.625V72.6562C53.9062 73.2779 53.6593 73.874 53.2198 74.3135C52.7802 74.7531 52.1841 75 51.5625 75C50.9409 75 50.3448 74.7531 49.9052 74.3135C49.4657 73.874 49.2188 73.2779 49.2188 72.6562V65.625H44.5312V72.6562C44.5312 73.2779 44.2843 73.874 43.8448 74.3135C43.4052 74.7531 42.8091 75 42.1875 75C41.5659 75 40.9698 74.7531 40.5302 74.3135C40.0907 73.874 39.8438 73.2779 39.8438 72.6562V65.625H35.1562V72.6562C35.1562 73.2779 34.9093 73.874 34.4698 74.3135C34.0302 74.7531 33.4341 75 32.8125 75C32.1909 75 31.5948 74.7531 31.1552 74.3135C30.7157 73.874 30.4688 73.2779 30.4688 72.6562V65.625H25.7812V72.6562C25.7812 73.2779 25.5343 73.874 25.0948 74.3135C24.6552 74.7531 24.0591 75 23.4375 75C22.8159 75 22.2198 74.7531 21.7802 74.3135C21.3407 73.874 21.0938 73.2779 21.0938 72.6562V65.625C17.9857 65.625 15.005 64.3904 12.8073 62.1927C10.6097 59.995 9.375 57.0143 9.375 53.9062H2.34375C1.72215 53.9062 1.12601 53.6593 0.686468 53.2198C0.24693 52.7802 0 52.1841 0 51.5625C0 50.9409 0.24693 50.3448 0.686468 49.9052C1.12601 49.4657 1.72215 49.2188 2.34375 49.2188H9.375V44.5312H2.34375C1.72215 44.5312 1.12601 44.2843 0.686468 43.8448C0.24693 43.4052 0 42.8091 0 42.1875C0 41.5659 0.24693 40.9698 0.686468 40.5302C1.12601 40.0907 1.72215 39.8438 2.34375 39.8438H9.375V35.1562H2.34375C1.72215 35.1562 1.12601 34.9093 0.686468 34.4698C0.24693 34.0302 0 33.4341 0 32.8125C0 32.1909 0.24693 31.5948 0.686468 31.1552C1.12601 30.7157 1.72215 30.4688 2.34375 30.4688H9.375V25.7812H2.34375C1.72215 25.7812 1.12601 25.5343 0.686468 25.0948C0.24693 24.6552 0 24.0591 0 23.4375C0 22.8159 0.24693 22.2198 0.686468 21.7802C1.12601 21.3407 1.72215 21.0938 2.34375 21.0938H9.375C9.375 17.9857 10.6097 15.005 12.8073 12.8073C15.005 10.6097 17.9857 9.375 21.0938 9.375V2.34375C21.0938 1.72215 21.3407 1.12601 21.7802 0.686468C22.2198 0.24693 22.8159 0 23.4375 0ZM21.0938 14.0625C19.2289 14.0625 17.4405 14.8033 16.1219 16.1219C14.8033 17.4405 14.0625 19.2289 14.0625 21.0938V53.9062C14.0625 55.7711 14.8033 57.5595 16.1219 58.8781C17.4405 60.1967 19.2289 60.9375 21.0938 60.9375H53.9062C55.7711 60.9375 57.5595 60.1967 58.8781 58.8781C60.1967 57.5595 60.9375 55.7711 60.9375 53.9062V21.0938C60.9375 19.2289 60.1967 17.4405 58.8781 16.1219C57.5595 14.8033 55.7711 14.0625 53.9062 14.0625H21.0938ZM23.4375 30.4688C23.4375 28.6039 24.1783 26.8155 25.4969 25.4969C26.8155 24.1783 28.6039 23.4375 30.4688 23.4375H44.5312C46.3961 23.4375 48.1845 24.1783 49.5031 25.4969C50.8217 26.8155 51.5625 28.6039 51.5625 30.4688V44.5312C51.5625 46.3961 50.8217 48.1845 49.5031 49.5031C48.1845 50.8217 46.3961 51.5625 44.5312 51.5625H30.4688C28.6039 51.5625 26.8155 50.8217 25.4969 49.5031C24.1783 48.1845 23.4375 46.3961 23.4375 44.5312V30.4688ZM30.4688 28.125C29.8471 28.125 29.251 28.3719 28.8115 28.8115C28.3719 29.251 28.125 29.8471 28.125 30.4688V44.5312C28.125 45.1529 28.3719 45.749 28.8115 46.1885C29.251 46.6281 29.8471 46.875 30.4688 46.875H44.5312C45.1529 46.875 45.749 46.6281 46.1885 46.1885C46.6281 45.749 46.875 45.1529 46.875 44.5312V30.4688C46.875 29.8471 46.6281 29.251 46.1885 28.8115C45.749 28.3719 45.1529 28.125 44.5312 28.125H30.4688Z" fill="white"/>
</g>
<defs>
<clipPath id="clip0_304_241">
<rect width="75" height="75" fill="white"/>
</clipPath>
</defs>
</svg>
