<svg width="35" height="34" viewBox="0 0 35 34" fill="none" xmlns="http://www.w3.org/2000/svg">
<rect width="35" height="34" rx="6" fill="#FC544B"/>
<path d="M8.61538 6.6C8.18696 6.6 7.77608 6.76857 7.47314 7.06863C7.17019 7.36869 7 7.77565 7 8.2V9.8C7 10.2243 7.17019 10.6313 7.47314 10.9314C7.77608 11.2314 8.18696 11.4 8.61538 11.4H9.42308V25.8C9.42308 26.6487 9.76346 27.4626 10.3693 28.0627C10.9752 28.6629 11.797 29 12.6538 29H22.3462C23.203 29 24.0248 28.6629 24.6307 28.0627C25.2365 27.4626 25.5769 26.6487 25.5769 25.8V11.4H26.3846C26.813 11.4 27.2239 11.2314 27.5269 10.9314C27.8298 10.6313 28 10.2243 28 9.8V8.2C28 7.77565 27.8298 7.36869 27.5269 7.06863C27.2239 6.76857 26.813 6.6 26.3846 6.6H20.7308C20.7308 6.17565 20.5606 5.76869 20.2576 5.46863C19.9547 5.16857 19.5438 5 19.1154 5H15.8846C15.4562 5 15.0453 5.16857 14.7424 5.46863C14.4394 5.76869 14.2692 6.17565 14.2692 6.6H8.61538ZM13.4615 13C13.6758 13 13.8812 13.0843 14.0327 13.2343C14.1841 13.3843 14.2692 13.5878 14.2692 13.8V25C14.2692 25.2122 14.1841 25.4157 14.0327 25.5657C13.8812 25.7157 13.6758 25.8 13.4615 25.8C13.2473 25.8 13.0419 25.7157 12.8904 25.5657C12.7389 25.4157 12.6538 25.2122 12.6538 25V13.8C12.6538 13.5878 12.7389 13.3843 12.8904 13.2343C13.0419 13.0843 13.2473 13 13.4615 13ZM17.5 13C17.7142 13 17.9197 13.0843 18.0711 13.2343C18.2226 13.3843 18.3077 13.5878 18.3077 13.8V25C18.3077 25.2122 18.2226 25.4157 18.0711 25.5657C17.9197 25.7157 17.7142 25.8 17.5 25.8C17.2858 25.8 17.0803 25.7157 16.9289 25.5657C16.7774 25.4157 16.6923 25.2122 16.6923 25V13.8C16.6923 13.5878 16.7774 13.3843 16.9289 13.2343C17.0803 13.0843 17.2858 13 17.5 13ZM22.3462 13.8V25C22.3462 25.2122 22.2611 25.4157 22.1096 25.5657C21.9581 25.7157 21.7527 25.8 21.5385 25.8C21.3242 25.8 21.1188 25.7157 20.9673 25.5657C20.8159 25.4157 20.7308 25.2122 20.7308 25V13.8C20.7308 13.5878 20.8159 13.3843 20.9673 13.2343C21.1188 13.0843 21.3242 13 21.5385 13C21.7527 13 21.9581 13.0843 22.1096 13.2343C22.2611 13.3843 22.3462 13.5878 22.3462 13.8Z" fill="white"/>
</svg>
