<svg width="35" height="34" viewBox="0 0 35 34" fill="none" xmlns="http://www.w3.org/2000/svg">
<rect width="35" height="34" rx="6" fill="#6777EF"/>
<path d="M27.8121 8.85473C27.9324 8.97541 28 9.13886 28 9.30927C28 9.47967 27.9324 9.64313 27.8121 9.76381L26.4689 11.1081L23.8933 8.53281L25.2365 7.1885C25.3572 7.0678 25.521 7 25.6917 7C25.8625 7 26.0262 7.0678 26.147 7.1885L27.8121 8.85344V8.85473ZM25.5584 12.0172L22.9828 9.44189L14.2089 18.216C14.138 18.2868 14.0847 18.3732 14.0531 18.4683L13.0164 21.5767C12.9976 21.6334 12.9949 21.6942 13.0087 21.7523C13.0224 21.8104 13.0521 21.8635 13.0943 21.9057C13.1365 21.9479 13.1897 21.9776 13.2478 21.9913C13.3059 22.0051 13.3667 22.0024 13.4233 21.9836L16.5321 20.9471C16.6271 20.9159 16.7135 20.863 16.7845 20.7925L25.5584 12.0172Z" fill="white"/>
<path fill-rule="evenodd" clip-rule="evenodd" d="M7 24.8571C7 25.4255 7.22576 25.9705 7.62763 26.3724C8.02949 26.7742 8.57454 27 9.14286 27H24.8571C25.4255 27 25.9705 26.7742 26.3724 26.3724C26.7742 25.9705 27 25.4255 27 24.8571V16.2857C27 16.0963 26.9247 15.9146 26.7908 15.7806C26.6568 15.6467 26.4752 15.5714 26.2857 15.5714C26.0963 15.5714 25.9146 15.6467 25.7806 15.7806C25.6467 15.9146 25.5714 16.0963 25.5714 16.2857V24.8571C25.5714 25.0466 25.4962 25.2283 25.3622 25.3622C25.2283 25.4962 25.0466 25.5714 24.8571 25.5714H9.14286C8.95342 25.5714 8.77174 25.4962 8.63778 25.3622C8.50383 25.2283 8.42857 25.0466 8.42857 24.8571V9.14286C8.42857 8.95342 8.50383 8.77174 8.63778 8.63778C8.77174 8.50383 8.95342 8.42857 9.14286 8.42857H18.4286C18.618 8.42857 18.7997 8.35332 18.9336 8.21936C19.0676 8.08541 19.1429 7.90373 19.1429 7.71429C19.1429 7.52485 19.0676 7.34316 18.9336 7.20921C18.7997 7.07525 18.618 7 18.4286 7H9.14286C8.57454 7 8.02949 7.22576 7.62763 7.62763C7.22576 8.02949 7 8.57454 7 9.14286V24.8571Z" fill="white"/>
</svg>
